<svg xmlns="http://www.w3.org/2000/svg" version="1.1" xmlns:xlink="http://www.w3.org/1999/xlink" xmlns:svgjs="http://svgjs.dev/svgjs" width="1000" height="1000" viewBox="0 0 1000 1000"><rect width="1000" height="1000" fill="#ffffff"></rect><g transform="matrix(0.7,0,0,0.7,150.61876796234992,146.08680161943317)"><svg viewBox="0 0 244 247" data-background-color="#ffffff" preserveAspectRatio="xMidYMid meet" height="1012" width="1000" xmlns="http://www.w3.org/2000/svg" xmlns:xlink="http://www.w3.org/1999/xlink"><g id="tight-bounds" transform="matrix(1,0,0,1,-0.21568483259054005,-0.09999999999999432)"><svg viewBox="0 0 244.43135999999998 247.2" height="247.2" width="244.43135999999998"><g><svg></svg></g><g><svg viewBox="0 0 244.43135999999998 247.2" height="247.2" width="244.43135999999998"><g transform="matrix(1,0,0,1,0,93.06386031261317)"><svg viewBox="0 0 244.43135999999998 61.07227937477364" height="61.07227937477364" width="244.43135999999998"><g><svg viewBox="0 0 244.43135999999998 61.07227937477364" height="61.07227937477364" width="244.43135999999998"><g><svg viewBox="0 0 244.43135999999998 61.07227937477364" height="61.07227937477364" width="244.43135999999998"><g><svg viewBox="0 0 244.43135999999998 61.07227937477364" height="61.07227937477364" width="244.43135999999998"><g id="textblocktransform"><svg viewBox="0 0 244.43135999999998 61.07227937477364" height="61.07227937477364" width="244.43135999999998" id="textblock"><g><svg viewBox="0 0 244.43135999999998 39.7179893173983" height="39.7179893173983" width="244.43135999999998"><g transform="matrix(1,0,0,1,0,0)"><svg width="244.43135999999998" viewBox="4.699999809265137 -35 217.52999877929688 35.349998474121094" height="39.7179893173983" data-palette-color="#1bb4f2"><path d="M4.7 0L4.7-35 20-35Q25.6-35 29.95-32.83 34.3-30.65 36.7-26.68 39.1-22.7 39.1-17.5L39.1-17.5Q39.1-12.3 36.7-8.33 34.3-4.35 29.95-2.18 25.6 0 20 0L20 0 4.7 0ZM11.2-5.5L19.7-5.5Q23.55-5.5 26.48-6.98 29.4-8.45 30.98-11.18 32.55-13.9 32.55-17.5L32.55-17.5Q32.55-21.1 30.98-23.83 29.4-26.55 26.48-28.03 23.55-29.5 19.7-29.5L19.7-29.5 11.2-29.5 11.2-5.5ZM70.5-13.2Q70.5-12.55 70.4-11.35L70.4-11.35 49.45-11.35Q50-8.4 52.32-6.68 54.65-4.95 58.1-4.95L58.1-4.95Q62.5-4.95 65.35-7.85L65.35-7.85 68.7-4Q66.9-1.85 64.15-0.75 61.4 0.35 57.95 0.35L57.95 0.35Q53.55 0.35 50.2-1.4 46.85-3.15 45.02-6.28 43.2-9.4 43.2-13.35L43.2-13.35Q43.2-17.25 44.97-20.38 46.75-23.5 49.9-25.25 53.05-27 57-27L57-27Q60.9-27 63.97-25.28 67.05-23.55 68.77-20.43 70.5-17.3 70.5-13.2L70.5-13.2ZM57-22Q54-22 51.92-20.23 49.85-18.45 49.4-15.5L49.4-15.5 64.55-15.5Q64.15-18.4 62.1-20.2 60.05-22 57-22L57-22ZM99.8 0L92.75 0 85.9-9.25 79 0 72.1 0 82.5-13.55 72.55-26.7 79.5-26.7 86.05-17.95 92.6-26.7 99.35-26.7 89.35-13.65 99.8 0ZM118.69-5.9L120.44-1.45Q119.34-0.55 117.77-0.1 116.19 0.35 114.44 0.35L114.44 0.35Q110.04 0.35 107.64-1.95 105.24-4.25 105.24-8.65L105.24-8.65 105.24-21.5 100.84-21.5 100.84-26.5 105.24-26.5 105.24-32.6 111.49-32.6 111.49-26.5 118.64-26.5 118.64-21.5 111.49-21.5 111.49-8.8Q111.49-6.85 112.44-5.83 113.39-4.8 115.19-4.8L115.19-4.8Q117.29-4.8 118.69-5.9L118.69-5.9ZM131.54-22.8Q134.24-27 141.04-27L141.04-27 141.04-21.05Q140.24-21.2 139.59-21.2L139.59-21.2Q135.94-21.2 133.89-19.07 131.84-16.95 131.84-12.95L131.84-12.95 131.84 0 125.59 0 125.59-26.7 131.54-26.7 131.54-22.8ZM156.39-27Q162.29-27 165.41-24.18 168.54-21.35 168.54-15.65L168.54-15.65 168.54 0 162.64 0 162.64-3.25Q161.49-1.5 159.36-0.58 157.24 0.35 154.24 0.35L154.24 0.35Q151.24 0.35 148.99-0.68 146.74-1.7 145.51-3.53 144.29-5.35 144.29-7.65L144.29-7.65Q144.29-11.25 146.96-13.43 149.64-15.6 155.39-15.6L155.39-15.6 162.29-15.6 162.29-16Q162.29-18.8 160.61-20.3 158.94-21.8 155.64-21.8L155.64-21.8Q153.39-21.8 151.21-21.1 149.04-20.4 147.54-19.15L147.54-19.15 145.09-23.7Q147.19-25.3 150.14-26.15 153.09-27 156.39-27L156.39-27ZM155.54-4.2Q157.89-4.2 159.71-5.28 161.54-6.35 162.29-8.35L162.29-8.35 162.29-11.45 155.84-11.45Q150.44-11.45 150.44-7.9L150.44-7.9Q150.44-6.2 151.79-5.2 153.14-4.2 155.54-4.2L155.54-4.2ZM189.03 0.35Q184.88 0.35 181.59-1.4 178.28-3.15 176.44-6.28 174.59-9.4 174.59-13.35L174.59-13.35Q174.59-17.3 176.44-20.4 178.28-23.5 181.56-25.25 184.84-27 189.03-27L189.03-27Q192.99-27 195.96-25.4 198.94-23.8 200.44-20.8L200.44-20.8 195.63-18Q194.49-19.85 192.76-20.78 191.03-21.7 188.99-21.7L188.99-21.7Q185.49-21.7 183.19-19.43 180.88-17.15 180.88-13.35L180.88-13.35Q180.88-9.55 183.16-7.28 185.44-5 188.99-5L188.99-5Q191.03-5 192.76-5.93 194.49-6.85 195.63-8.7L195.63-8.7 200.44-5.9Q198.88-2.9 195.91-1.28 192.94 0.35 189.03 0.35L189.03 0.35ZM220.48-5.9L222.23-1.45Q221.13-0.55 219.56-0.1 217.98 0.35 216.23 0.35L216.23 0.35Q211.83 0.35 209.43-1.95 207.03-4.25 207.03-8.65L207.03-8.65 207.03-21.5 202.63-21.5 202.63-26.5 207.03-26.5 207.03-32.6 213.28-32.6 213.28-26.5 220.43-26.5 220.43-21.5 213.28-21.5 213.28-8.8Q213.28-6.85 214.23-5.83 215.18-4.8 216.98-4.8L216.98-4.8Q219.08-4.8 220.48-5.9L220.48-5.9Z" opacity="1" transform="matrix(1,0,0,1,0,0)" fill="#1bb4f2" class="undefined-text-0" data-fill-palette-color="primary" id="text-0"></path></svg></g></svg></g><g transform="matrix(1,0,0,1,0,49.09445336349242)"><svg viewBox="0 0 244.43135999999998 11.977826011281227" height="11.977826011281227" width="244.43135999999998"><g transform="matrix(1,0,0,1,0,0)"><svg width="244.43135999999998" viewBox="4.699999809265137 -38.599998474121094 992.7099609375 48.64999771118164" height="11.977826011281227" data-palette-color="#111111"><path d="M4.7 0L4.7-35 20-35Q25.6-35 29.95-32.83 34.3-30.65 36.7-26.68 39.1-22.7 39.1-17.5L39.1-17.5Q39.1-12.3 36.7-8.33 34.3-4.35 29.95-2.18 25.6 0 20 0L20 0 4.7 0ZM11.2-5.5L19.7-5.5Q23.55-5.5 26.48-6.98 29.4-8.45 30.98-11.18 32.55-13.9 32.55-17.5L32.55-17.5Q32.55-21.1 30.98-23.83 29.4-26.55 26.48-28.03 23.55-29.5 19.7-29.5L19.7-29.5 11.2-29.5 11.2-5.5ZM70.5-13.2Q70.5-12.55 70.4-11.35L70.4-11.35 49.45-11.35Q50-8.4 52.32-6.68 54.65-4.95 58.1-4.95L58.1-4.95Q62.5-4.95 65.35-7.85L65.35-7.85 68.7-4Q66.9-1.85 64.15-0.75 61.4 0.35 57.95 0.35L57.95 0.35Q53.55 0.35 50.2-1.4 46.85-3.15 45.02-6.28 43.2-9.4 43.2-13.35L43.2-13.35Q43.2-17.25 44.97-20.38 46.75-23.5 49.9-25.25 53.05-27 57-27L57-27Q60.9-27 63.97-25.28 67.05-23.55 68.77-20.43 70.5-17.3 70.5-13.2L70.5-13.2ZM57-22Q54-22 51.92-20.23 49.85-18.45 49.4-15.5L49.4-15.5 64.55-15.5Q64.15-18.4 62.1-20.2 60.05-22 57-22L57-22ZM110.2-27Q115.25-27 118.2-24.08 121.15-21.15 121.15-15.3L121.15-15.3 121.15 0 114.9 0 114.9-14.5Q114.9-18 113.35-19.78 111.8-21.55 108.9-21.55L108.9-21.55Q105.75-21.55 103.85-19.48 101.95-17.4 101.95-13.55L101.95-13.55 101.95 0 95.7 0 95.7-14.5Q95.7-18 94.15-19.78 92.6-21.55 89.7-21.55L89.7-21.55Q86.5-21.55 84.62-19.5 82.75-17.45 82.75-13.55L82.75-13.55 82.75 0 76.5 0 76.5-26.7 82.45-26.7 82.45-23.3Q83.95-25.1 86.2-26.05 88.45-27 91.2-27L91.2-27Q94.2-27 96.52-25.88 98.85-24.75 100.2-22.55L100.2-22.55Q101.85-24.65 104.45-25.83 107.05-27 110.2-27L110.2-27ZM147.64-26.7L153.64-26.7 141.14 2.15Q139.39 6.5 136.89 8.28 134.39 10.05 130.84 10.05L130.84 10.05Q128.84 10.05 126.89 9.4 124.94 8.75 123.69 7.6L123.69 7.6 126.19 3Q127.09 3.85 128.32 4.35 129.54 4.85 130.79 4.85L130.79 4.85Q132.44 4.85 133.52 4 134.59 3.15 135.49 1.15L135.49 1.15 135.94 0.1 124.29-26.7 130.79-26.7 139.19-6.95 147.64-26.7ZM165.44 0.35Q162.19 0.35 159.09-0.5 155.99-1.35 154.14-2.65L154.14-2.65 156.54-7.4Q158.34-6.2 160.87-5.48 163.39-4.75 165.84-4.75L165.84-4.75Q171.44-4.75 171.44-7.7L171.44-7.7Q171.44-9.1 170.02-9.65 168.59-10.2 165.44-10.7L165.44-10.7Q162.14-11.2 160.07-11.85 157.99-12.5 156.47-14.13 154.94-15.75 154.94-18.65L154.94-18.65Q154.94-22.45 158.12-24.73 161.29-27 166.69-27L166.69-27Q169.44-27 172.19-26.38 174.94-25.75 176.69-24.7L176.69-24.7 174.29-19.95Q170.89-21.95 166.64-21.95L166.64-21.95Q163.89-21.95 162.47-21.13 161.04-20.3 161.04-18.95L161.04-18.95Q161.04-17.45 162.57-16.82 164.09-16.2 167.29-15.65L167.29-15.65Q170.49-15.15 172.54-14.5 174.59-13.85 176.07-12.3 177.54-10.75 177.54-7.9L177.54-7.9Q177.54-4.15 174.29-1.9 171.04 0.35 165.44 0.35L165.44 0.35ZM197.24-5.9L198.99-1.45Q197.89-0.55 196.31-0.1 194.74 0.35 192.99 0.35L192.99 0.35Q188.59 0.35 186.19-1.95 183.79-4.25 183.79-8.65L183.79-8.65 183.79-21.5 179.39-21.5 179.39-26.5 183.79-26.5 183.79-32.6 190.04-32.6 190.04-26.5 197.19-26.5 197.19-21.5 190.04-21.5 190.04-8.8Q190.04-6.85 190.99-5.83 191.94-4.8 193.74-4.8L193.74-4.8Q195.84-4.8 197.24-5.9L197.24-5.9ZM204.14 0L204.14-26.7 210.39-26.7 210.39 0 204.14 0ZM207.29-31.1Q205.59-31.1 204.44-32.18 203.29-33.25 203.29-34.85L203.29-34.85Q203.29-36.45 204.44-37.52 205.59-38.6 207.29-38.6L207.29-38.6Q208.99-38.6 210.14-37.58 211.29-36.55 211.29-35L211.29-35Q211.29-33.35 210.16-32.23 209.04-31.1 207.29-31.1L207.29-31.1ZM229.43-32.4Q225.48-32.4 225.48-28.1L225.48-28.1 225.48-26.5 232.83-26.5 232.83-21.5 225.68-21.5 225.68 0 219.43 0 219.43-21.5 215.03-21.5 215.03-26.5 219.43-26.5 219.43-28.2Q219.43-32.5 221.93-34.98 224.43-37.45 228.98-37.45L228.98-37.45Q232.58-37.45 234.63-36L234.63-36 232.88-31.3Q231.28-32.4 229.43-32.4L229.43-32.4ZM256.53-26.7L262.53-26.7 250.03 2.15Q248.28 6.5 245.78 8.28 243.28 10.05 239.73 10.05L239.73 10.05Q237.73 10.05 235.78 9.4 233.83 8.75 232.58 7.6L232.58 7.6 235.08 3Q235.98 3.85 237.21 4.35 238.43 4.85 239.68 4.85L239.68 4.85Q241.33 4.85 242.41 4 243.48 3.15 244.38 1.15L244.38 1.15 244.83 0.1 233.18-26.7 239.68-26.7 248.08-6.95 256.53-26.7ZM266.43 0L266.43-26.7 272.68-26.7 272.68 0 266.43 0ZM269.58-31.1Q267.88-31.1 266.73-32.18 265.58-33.25 265.58-34.85L265.58-34.85Q265.58-36.45 266.73-37.52 267.88-38.6 269.58-38.6L269.58-38.6Q271.28-38.6 272.43-37.58 273.58-36.55 273.58-35L273.58-35Q273.58-33.35 272.45-32.23 271.33-31.1 269.58-31.1L269.58-31.1ZM296.02-27Q301.07-27 304.13-24.05 307.17-21.1 307.17-15.3L307.17-15.3 307.17 0 300.92 0 300.92-14.5Q300.92-18 299.27-19.78 297.63-21.55 294.57-21.55L294.57-21.55Q291.13-21.55 289.13-19.48 287.13-17.4 287.13-13.5L287.13-13.5 287.13 0 280.88 0 280.88-26.7 286.82-26.7 286.82-23.25Q288.38-25.1 290.72-26.05 293.07-27 296.02-27L296.02-27ZM335.92-26.7L341.87-26.7 341.87-4.05Q341.87 10.05 327.47 10.05L327.47 10.05Q323.62 10.05 320.17 9.08 316.72 8.1 314.47 6.25L314.47 6.25 317.27 1.55Q319.02 3 321.7 3.88 324.37 4.75 327.12 4.75L327.12 4.75Q331.52 4.75 333.57 2.75 335.62 0.75 335.62-3.35L335.62-3.35 335.62-4.75Q334.02-3 331.72-2.1 329.42-1.2 326.67-1.2L326.67-1.2Q322.87-1.2 319.8-2.83 316.72-4.45 314.95-7.4 313.17-10.35 313.17-14.15L313.17-14.15Q313.17-17.95 314.95-20.88 316.72-23.8 319.8-25.4 322.87-27 326.67-27L326.67-27Q329.57-27 331.95-26.05 334.32-25.1 335.92-23.15L335.92-23.15 335.92-26.7ZM327.62-6.5Q331.17-6.5 333.45-8.63 335.72-10.75 335.72-14.15L335.72-14.15Q335.72-17.5 333.45-19.6 331.17-21.7 327.62-21.7L327.62-21.7Q324.02-21.7 321.75-19.6 319.47-17.5 319.47-14.15L319.47-14.15Q319.47-10.75 321.75-8.63 324.02-6.5 327.62-6.5L327.62-6.5ZM378.17-5.9L379.92-1.45Q378.82-0.55 377.24-0.1 375.67 0.35 373.92 0.35L373.92 0.35Q369.52 0.35 367.12-1.95 364.72-4.25 364.72-8.65L364.72-8.65 364.72-21.5 360.32-21.5 360.32-26.5 364.72-26.5 364.72-32.6 370.97-32.6 370.97-26.5 378.12-26.5 378.12-21.5 370.97-21.5 370.97-8.8Q370.97-6.85 371.92-5.83 372.87-4.8 374.67-4.8L374.67-4.8Q376.77-4.8 378.17-5.9L378.17-5.9ZM400.21-27Q405.26-27 408.31-24.05 411.36-21.1 411.36-15.3L411.36-15.3 411.36 0 405.11 0 405.11-14.5Q405.11-18 403.46-19.78 401.81-21.55 398.76-21.55L398.76-21.55Q395.31-21.55 393.31-19.48 391.31-17.4 391.31-13.5L391.31-13.5 391.31 0 385.06 0 385.06-37.1 391.31-37.1 391.31-23.6Q392.86-25.25 395.14-26.13 397.41-27 400.21-27L400.21-27ZM444.66-13.2Q444.66-12.55 444.56-11.35L444.56-11.35 423.61-11.35Q424.16-8.4 426.49-6.68 428.81-4.95 432.26-4.95L432.26-4.95Q436.66-4.95 439.51-7.85L439.51-7.85 442.86-4Q441.06-1.85 438.31-0.75 435.56 0.35 432.11 0.35L432.11 0.35Q427.71 0.35 424.36-1.4 421.01-3.15 419.19-6.28 417.36-9.4 417.36-13.35L417.36-13.35Q417.36-17.25 419.14-20.38 420.91-23.5 424.06-25.25 427.21-27 431.16-27L431.16-27Q435.06-27 438.14-25.28 441.21-23.55 442.94-20.43 444.66-17.3 444.66-13.2L444.66-13.2ZM431.16-22Q428.16-22 426.09-20.23 424.01-18.45 423.56-15.5L423.56-15.5 438.71-15.5Q438.31-18.4 436.26-20.2 434.21-22 431.16-22L431.16-22ZM490.56-35L497.06-35 481.81 0 475.41 0 460.11-35 467.16-35 478.81-8 490.56-35ZM516.61 0.5Q511.31 0.5 507.03-1.83 502.75-4.15 500.33-8.25 497.9-12.35 497.9-17.5L497.9-17.5Q497.9-22.65 500.35-26.75 502.81-30.85 507.08-33.18 511.35-35.5 516.65-35.5L516.65-35.5Q520.95-35.5 524.5-34 528.05-32.5 530.5-29.65L530.5-29.65 526.3-25.7Q522.5-29.8 516.95-29.8L516.95-29.8Q513.36-29.8 510.5-28.23 507.65-26.65 506.06-23.85 504.45-21.05 504.45-17.5L504.45-17.5Q504.45-13.95 506.06-11.15 507.65-8.35 510.5-6.78 513.36-5.2 516.95-5.2L516.95-5.2Q522.5-5.2 526.3-9.35L526.3-9.35 530.5-5.35Q528.05-2.5 524.48-1 520.9 0.5 516.61 0.5L516.61 0.5ZM550.55 0L550.55-35 557.05-35 557.05 0 550.55 0ZM581.05-27Q586.1-27 589.15-24.05 592.2-21.1 592.2-15.3L592.2-15.3 592.2 0 585.95 0 585.95-14.5Q585.95-18 584.3-19.78 582.65-21.55 579.6-21.55L579.6-21.55Q576.15-21.55 574.15-19.48 572.15-17.4 572.15-13.5L572.15-13.5 572.15 0 565.9 0 565.9-26.7 571.85-26.7 571.85-23.25Q573.4-25.1 575.75-26.05 578.1-27 581.05-27L581.05-27ZM618.64-26.7L624.64-26.7 613.19 0 606.74 0 595.29-26.7 601.79-26.7 610.09-6.9 618.64-26.7ZM652.89-13.2Q652.89-12.55 652.79-11.35L652.79-11.35 631.84-11.35Q632.39-8.4 634.72-6.68 637.04-4.95 640.49-4.95L640.49-4.95Q644.89-4.95 647.74-7.85L647.74-7.85 651.09-4Q649.29-1.85 646.54-0.75 643.79 0.35 640.34 0.35L640.34 0.35Q635.94 0.35 632.59-1.4 629.24-3.15 627.42-6.28 625.59-9.4 625.59-13.35L625.59-13.35Q625.59-17.25 627.37-20.38 629.14-23.5 632.29-25.25 635.44-27 639.39-27L639.39-27Q643.29-27 646.37-25.28 649.44-23.55 651.17-20.43 652.89-17.3 652.89-13.2L652.89-13.2ZM639.39-22Q636.39-22 634.32-20.23 632.24-18.45 631.79-15.5L631.79-15.5 646.94-15.5Q646.54-18.4 644.49-20.2 642.44-22 639.39-22L639.39-22ZM667.14 0.35Q663.89 0.35 660.79-0.5 657.69-1.35 655.84-2.65L655.84-2.65 658.24-7.4Q660.04-6.2 662.56-5.48 665.09-4.75 667.54-4.75L667.54-4.75Q673.14-4.75 673.14-7.7L673.14-7.7Q673.14-9.1 671.71-9.65 670.29-10.2 667.14-10.7L667.14-10.7Q663.84-11.2 661.76-11.85 659.69-12.5 658.16-14.13 656.64-15.75 656.64-18.65L656.64-18.65Q656.64-22.45 659.81-24.73 662.99-27 668.39-27L668.39-27Q671.14-27 673.89-26.38 676.64-25.75 678.39-24.7L678.39-24.7 675.99-19.95Q672.59-21.95 668.34-21.95L668.34-21.95Q665.59-21.95 664.16-21.13 662.74-20.3 662.74-18.95L662.74-18.95Q662.74-17.45 664.26-16.82 665.79-16.2 668.99-15.65L668.99-15.65Q672.19-15.15 674.24-14.5 676.29-13.85 677.76-12.3 679.24-10.75 679.24-7.9L679.24-7.9Q679.24-4.15 675.99-1.9 672.74 0.35 667.14 0.35L667.14 0.35ZM698.94-5.9L700.69-1.45Q699.59-0.55 698.01-0.1 696.44 0.35 694.69 0.35L694.69 0.35Q690.29 0.35 687.89-1.95 685.49-4.25 685.49-8.65L685.49-8.65 685.49-21.5 681.09-21.5 681.09-26.5 685.49-26.5 685.49-32.6 691.74-32.6 691.74-26.5 698.89-26.5 698.89-21.5 691.74-21.5 691.74-8.8Q691.74-6.85 692.69-5.83 693.64-4.8 695.44-4.8L695.44-4.8Q697.54-4.8 698.94-5.9L698.94-5.9ZM705.83 0L705.83-26.7 712.08-26.7 712.08 0 705.83 0ZM708.98-31.1Q707.28-31.1 706.13-32.18 704.98-33.25 704.98-34.85L704.98-34.85Q704.98-36.45 706.13-37.52 707.28-38.6 708.98-38.6L708.98-38.6Q710.68-38.6 711.83-37.58 712.98-36.55 712.98-35L712.98-35Q712.98-33.35 711.86-32.23 710.73-31.1 708.98-31.1L708.98-31.1ZM735.43-27Q740.48-27 743.53-24.05 746.58-21.1 746.58-15.3L746.58-15.3 746.58 0 740.33 0 740.33-14.5Q740.33-18 738.68-19.78 737.03-21.55 733.98-21.55L733.98-21.55Q730.53-21.55 728.53-19.48 726.53-17.4 726.53-13.5L726.53-13.5 726.53 0 720.28 0 720.28-26.7 726.23-26.7 726.23-23.25Q727.78-25.1 730.13-26.05 732.48-27 735.43-27L735.43-27ZM775.33-26.7L781.28-26.7 781.28-4.05Q781.28 10.05 766.88 10.05L766.88 10.05Q763.03 10.05 759.58 9.08 756.13 8.1 753.88 6.25L753.88 6.25 756.68 1.55Q758.43 3 761.1 3.88 763.78 4.75 766.53 4.75L766.53 4.75Q770.93 4.75 772.98 2.75 775.03 0.75 775.03-3.35L775.03-3.35 775.03-4.75Q773.43-3 771.13-2.1 768.83-1.2 766.08-1.2L766.08-1.2Q762.28-1.2 759.2-2.83 756.13-4.45 754.35-7.4 752.58-10.35 752.58-14.15L752.58-14.15Q752.58-17.95 754.35-20.88 756.13-23.8 759.2-25.4 762.28-27 766.08-27L766.08-27Q768.98-27 771.35-26.05 773.73-25.1 775.33-23.15L775.33-23.15 775.33-26.7ZM767.03-6.5Q770.58-6.5 772.85-8.63 775.13-10.75 775.13-14.15L775.13-14.15Q775.13-17.5 772.85-19.6 770.58-21.7 767.03-21.7L767.03-21.7Q763.43-21.7 761.15-19.6 758.88-17.5 758.88-14.15L758.88-14.15Q758.88-10.75 761.15-8.63 763.43-6.5 767.03-6.5L767.03-6.5ZM818.27-35Q822.82-35 826.2-33.5 829.57-32 831.37-29.2 833.17-26.4 833.17-22.55L833.17-22.55Q833.17-18.75 831.37-15.93 829.57-13.1 826.2-11.6 822.82-10.1 818.27-10.1L818.27-10.1 810.37-10.1 810.37 0 803.87 0 803.87-35 818.27-35ZM817.97-15.6Q822.22-15.6 824.42-17.4 826.62-19.2 826.62-22.55L826.62-22.55Q826.62-25.9 824.42-27.7 822.22-29.5 817.97-29.5L817.97-29.5 810.37-29.5 810.37-15.6 817.97-15.6ZM844.77-22.8Q847.47-27 854.27-27L854.27-27 854.27-21.05Q853.47-21.2 852.82-21.2L852.82-21.2Q849.17-21.2 847.12-19.07 845.07-16.95 845.07-12.95L845.07-12.95 845.07 0 838.82 0 838.82-26.7 844.77-26.7 844.77-22.8ZM871.32 0.35Q867.27 0.35 864.02-1.4 860.77-3.15 858.94-6.28 857.12-9.4 857.12-13.35L857.12-13.35Q857.12-17.3 858.94-20.4 860.77-23.5 864.02-25.25 867.27-27 871.32-27L871.32-27Q875.42-27 878.67-25.25 881.92-23.5 883.74-20.4 885.57-17.3 885.57-13.35L885.57-13.35Q885.57-9.4 883.74-6.28 881.92-3.15 878.67-1.4 875.42 0.35 871.32 0.35L871.32 0.35ZM871.32-5Q874.77-5 877.02-7.3 879.27-9.6 879.27-13.35L879.27-13.35Q879.27-17.1 877.02-19.4 874.77-21.7 871.32-21.7L871.32-21.7Q867.87-21.7 865.64-19.4 863.42-17.1 863.42-13.35L863.42-13.35Q863.42-9.6 865.64-7.3 867.87-5 871.32-5L871.32-5ZM903.82 0.35Q899.67 0.35 896.37-1.4 893.07-3.15 891.22-6.28 889.37-9.4 889.37-13.35L889.37-13.35Q889.37-17.3 891.22-20.4 893.07-23.5 896.34-25.25 899.62-27 903.82-27L903.82-27Q907.77-27 910.74-25.4 913.72-23.8 915.22-20.8L915.22-20.8 910.42-18Q909.27-19.85 907.54-20.78 905.82-21.7 903.77-21.7L903.77-21.7Q900.27-21.7 897.97-19.43 895.67-17.15 895.67-13.35L895.67-13.35Q895.67-9.55 897.94-7.28 900.22-5 903.77-5L903.77-5Q905.82-5 907.54-5.93 909.27-6.85 910.42-8.7L910.42-8.7 915.22-5.9Q913.67-2.9 910.69-1.28 907.72 0.35 903.82 0.35L903.82 0.35ZM945.31-13.2Q945.31-12.55 945.21-11.35L945.21-11.35 924.26-11.35Q924.81-8.4 927.14-6.68 929.46-4.95 932.91-4.95L932.91-4.95Q937.31-4.95 940.16-7.85L940.16-7.85 943.51-4Q941.71-1.85 938.96-0.75 936.21 0.35 932.76 0.35L932.76 0.35Q928.36 0.35 925.01-1.4 921.66-3.15 919.84-6.28 918.01-9.4 918.01-13.35L918.01-13.35Q918.01-17.25 919.79-20.38 921.56-23.5 924.71-25.25 927.86-27 931.81-27L931.81-27Q935.71-27 938.79-25.28 941.86-23.55 943.59-20.43 945.31-17.3 945.31-13.2L945.31-13.2ZM931.81-22Q928.81-22 926.74-20.23 924.66-18.45 924.21-15.5L924.21-15.5 939.36-15.5Q938.96-18.4 936.91-20.2 934.86-22 931.81-22L931.81-22ZM959.56 0.35Q956.31 0.35 953.21-0.5 950.11-1.35 948.26-2.65L948.26-2.65 950.66-7.4Q952.46-6.2 954.99-5.48 957.51-4.75 959.96-4.75L959.96-4.75Q965.56-4.75 965.56-7.7L965.56-7.7Q965.56-9.1 964.14-9.65 962.71-10.2 959.56-10.7L959.56-10.7Q956.26-11.2 954.19-11.85 952.11-12.5 950.59-14.13 949.06-15.75 949.06-18.65L949.06-18.65Q949.06-22.45 952.24-24.73 955.41-27 960.81-27L960.81-27Q963.56-27 966.31-26.38 969.06-25.75 970.81-24.7L970.81-24.7 968.41-19.95Q965.01-21.95 960.76-21.95L960.76-21.95Q958.01-21.95 956.59-21.13 955.16-20.3 955.16-18.95L955.16-18.95Q955.16-17.45 956.69-16.82 958.21-16.2 961.41-15.65L961.41-15.65Q964.61-15.15 966.66-14.5 968.71-13.85 970.19-12.3 971.66-10.75 971.66-7.9L971.66-7.9Q971.66-4.15 968.41-1.9 965.16 0.35 959.56 0.35L959.56 0.35ZM985.31 0.35Q982.06 0.35 978.96-0.5 975.86-1.35 974.01-2.65L974.01-2.65 976.41-7.4Q978.21-6.2 980.73-5.48 983.26-4.75 985.71-4.75L985.71-4.75Q991.31-4.75 991.31-7.7L991.31-7.7Q991.31-9.1 989.88-9.65 988.46-10.2 985.31-10.7L985.31-10.7Q982.01-11.2 979.93-11.85 977.86-12.5 976.33-14.13 974.81-15.75 974.81-18.65L974.81-18.65Q974.81-22.45 977.98-24.73 981.16-27 986.56-27L986.56-27Q989.31-27 992.06-26.38 994.81-25.75 996.56-24.7L996.56-24.7 994.16-19.95Q990.76-21.95 986.51-21.95L986.51-21.95Q983.76-21.95 982.33-21.13 980.91-20.3 980.91-18.95L980.91-18.95Q980.91-17.45 982.43-16.82 983.96-16.2 987.16-15.65L987.16-15.65Q990.36-15.15 992.41-14.5 994.46-13.85 995.93-12.3 997.41-10.75 997.41-7.9L997.41-7.9Q997.41-4.15 994.16-1.9 990.91 0.35 985.31 0.35L985.31 0.35Z" opacity="1" transform="matrix(1,0,0,1,0,0)" fill="#111111" class="undefined-text-1" data-fill-palette-color="secondary" id="text-1"></path></svg></g></svg></g></svg></g></svg></g><g></g></svg></g></svg></g></svg></g><path d="M0 87.064L0 1 244.431 1 244.431 87.064 240.85 87.064 240.85 4.582 3.582 4.582 3.582 87.064 0 87.064M0 160.136L0 246.2 244.431 246.2 244.431 160.136 240.85 160.136 240.85 242.618 3.582 242.618 3.582 160.136 0 160.136" fill="#1bb4f2" stroke="transparent" data-fill-palette-color="primary"></path></svg></g><defs></defs></svg><rect width="244.43135999999998" height="247.2" fill="none" stroke="none" visibility="hidden"></rect></g></svg></g></svg>